<?xml version="1.0" standalone="no"?>
<!DOCTYPE svg PUBLIC "-//W3C//DTD SVG 1.1//EN" "http://www.w3.org/Graphics/SVG/1.1/DTD/svg11.dtd" >
<svg xmlns="http://www.w3.org/2000/svg">
  <metadata>Created by iconfont</metadata>
  <defs>
  <font id="Genericons" horiz-adv-x="1024">
    <font-face
      font-family="Genericons"
      font-weight="400"
      font-stretch="normal"
      units-per-em="1024"
      ascent="896"
      descent="-128"
    />
      <missing-glyph />
      
      <glyph glyph-name="home" unicode="&#57625;" d="M817.520371 326.714931L702.950232 441.285069 702.950232 613.140278 626.570139 613.140278 626.570139 517.665162 512 632.235301 206.479629 326.714931 206.479629 307.619907 282.859722 307.619907 282.859722 116.669676 473.809954 116.669676 473.809954 231.239815 550.190046 231.239815 550.190046 116.669676 741.140278 116.669676 741.140278 307.619907 817.520371 307.619907z"  horiz-adv-x="1024" />
      
      <glyph glyph-name="wechat" unicode="&#57872;" d="M380.518518 750.402117C205.386243 750.402117 62 631.354497 62 479.502646c0-87.301587 47.619047-159.259259 127.513228-214.814815l-31.746032-95.767196 111.111112 56.084656c39.68254-7.936508 71.957672-15.873016 111.640211-15.873016 10.05291 0 20.10582 0.529101 29.62963 1.058201-6.349206 21.164021-10.05291 43.386244-10.052911 66.666667 0 139.153439 119.576719 251.851852 270.899471 251.851851 10.58201 0 20.63492-0.529101 30.687831-2.116402C674.169313 655.164021 537.132275 750.402117 380.518518 750.402117zM273.640212 535.587301c-21.693122 0-39.153439 17.460317-39.153439 39.15344 0 21.693122 17.460317 39.153439 39.153439 39.153439s39.153439-17.460317 39.153439-39.153439C312.793651 553.047619 295.333333 535.587301 273.640212 535.587301zM497.449735 535.587301c-21.693122 0-39.153439 17.460317-39.153439 39.15344 0 21.693122 17.460317 39.153439 39.153439 39.153439s39.153439-17.460317 39.153439-39.153439C536.603174 553.047619 519.142857 535.587301 497.449735 535.587301zM962 280.560847c0 127.513228-127.513228 231.216931-270.37037 231.216931-151.322752 0-270.899471-103.703704-270.899471-231.216931 0-127.513228 119.576719-231.216931 270.899471-231.216931 31.746031 0 63.492064 7.936508 95.767195 15.873016l87.301588-47.619048-23.809524 79.36508C914.380953 145.111111 962 208.603175 962 280.560847zM607.502646 320.772487c-17.460317 0-31.746031 14.285714-31.746032 31.746032s14.285714 31.746031 31.746032 31.746031 31.746031-14.285714 31.746031-31.746031S624.962963 320.772487 607.502646 320.772487zM780.518518 320.772487c-17.460317 0-31.746031 14.285714-31.746031 31.746032s14.285714 31.746031 31.746031 31.746031 31.746031-14.285714 31.746032-31.746031S798.507936 320.772487 780.518518 320.772487z"  horiz-adv-x="1024" />
      
      <glyph glyph-name="archive" unicode="&#57620;" d="M811.906159 591.270813l-92.666245 92.666244A30.775452 30.775452 0 0 1 697.394287 692.990479H326.605713a30.806351 30.806351 0 0 1-21.845627-9.053422L212.093841 591.270813A30.775452 30.775452 0 0 1 203.009521 569.394287v-401.687622c0-34.08165 27.716446-61.798095 61.798096-61.798096h494.384766c34.08165 0 61.798095 27.716446 61.798096 61.798096V569.394287a30.713654 30.713654 0 0 1-9.08432 21.876526zM339.397919 631.192383h345.204162l30.899048-30.899048H308.498871l30.899048 30.899048zM512 198.605713l-154.495239 154.495239h92.697144v92.697143h123.59619v-92.697143h92.697144l-154.495239-154.495239z"  horiz-adv-x="1024" />
      
      <glyph glyph-name="close" unicode="&#57624;" d="M797.152346 600.792163L728.792163 669.152346 512 452.360183 295.207837 669.152346 226.847654 600.792163 443.639817 384 226.847654 167.207837 295.207837 98.847654 512 315.639817 728.792163 98.847654 797.152346 167.207837 580.360183 384z"  horiz-adv-x="1024" />
      
      <glyph glyph-name="menu" unicode="&#57623;" d="M206.479629 689.520371h712.880865v-101.840124H206.479629zM206.479629 434.920062h712.880865v-101.840124H206.479629zM206.479629 180.319753h712.880865v-101.840124H206.479629z"  horiz-adv-x="1194" />
      
      <glyph glyph-name="link" unicode="&#57622;" d="M684.64843 193.10182h-86.613894c-20.2775 0-36.64434 16.366839-36.644339 36.64434s16.366839 36.64434 36.644339 36.644339h86.613894c1.738071 0 3.620982 0 5.359053 0.144839 1.738071 0.144839 3.620982 0.289679 5.359054 0.434518 1.738071 0.144839 3.620982 0.434518 5.359054 0.724197 1.738071 0.289679 3.620982 0.579357 5.359053 0.869035 1.738071 0.289679 3.476143 0.724196 5.214215 1.158715 1.738071 0.434518 3.476143 0.869036 5.214214 1.448393 1.738071 0.579357 3.476143 1.158714 5.069375 1.738071 1.738071 0.579357 3.331304 1.303554 5.069375 1.882911 1.593232 0.724196 3.331304 1.448393 4.924536 2.172589s3.186464 1.593232 4.779696 2.462268c1.593232 0.869036 3.186464 1.738071 4.634857 2.607107 1.593232 0.869036 3.041625 1.882911 4.634858 2.896786 1.448393 1.013875 3.041625 2.02775 4.345178 3.041625 1.448393 1.013875 2.896786 2.172589 4.20034 3.331303 1.448393 1.158714 2.751946 2.317429 4.0555 3.476143 1.303554 1.158714 2.607107 2.462268 3.91066 3.765822 1.303554 1.303554 2.462268 2.607107 3.765822 3.910661 1.158714 1.303554 2.317429 2.751946 3.476143 4.0555 1.158714 1.448393 2.317429 2.751946 3.331303 4.200339 1.013875 1.448393 2.172589 2.896786 3.186465 4.490018 1.013875 1.448393 2.02775 3.041625 2.896785 4.490018 0.869036 1.593232 1.882911 3.041625 2.607107 4.634857 0.869036 1.593232 1.738071 3.186464 2.462268 4.779696 0.724196 1.593232 1.448393 3.331304 2.17259 4.924536s1.303554 3.331304 1.88291 5.069375c0.579357 1.738071 1.158714 3.476143 1.738072 5.069375s1.013875 3.476143 1.448393 5.214214c0.434518 1.738071 0.869036 3.476143 1.158714 5.214215 0.289679 1.738071 0.724196 3.476143 0.869036 5.359053 0.289679 1.738071 0.434518 3.620982 0.724196 5.359054 0.144839 1.738071 0.289679 3.620982 0.434518 5.359054 0.144839 1.738071 0.144839 3.620982 0.144839 5.359053s0 3.620982-0.144839 5.359054c-0.144839 1.738071-0.289679 3.620982-0.434518 5.359053-0.144839 1.738071-0.434518 3.620982-0.724196 5.359054-0.289679 1.738071-0.579357 3.620982-0.869036 5.359054-0.289679 1.738071-0.724196 3.476143-1.158714 5.214214-0.434518 1.738071-0.869036 3.476143-1.448393 5.214214-0.579357 1.738071-1.158714 3.476143-1.738072 5.069375-0.579357 1.738071-1.303554 3.331304-1.88291 5.069375-0.724196 1.593232-1.448393 3.331304-2.17259 4.924536s-1.593232 3.186464-2.462268 4.779697c-0.869036 1.593232-1.738071 3.186464-2.607107 4.634857-0.869036 1.593232-1.882911 3.041625-2.896785 4.634857l-3.041625 4.345179c-1.013875 1.448393-2.172589 2.896786-3.331304 4.200339-1.158714 1.448393-2.317429 2.751946-3.476143 4.0555-1.158714 1.303554-2.462268 2.607107-3.765821 3.910661-1.303554 1.303554-2.607107 2.462268-3.910661 3.765821-1.303554 1.158714-2.751946 2.317429-4.0555 3.476143-1.448393 1.158714-2.751946 2.317429-4.200339 3.331304-1.448393 1.013875-2.896786 2.172589-4.490018 3.186464-1.448393 1.013875-3.041625 2.02775-4.634858 2.896786-1.593232 0.869036-3.041625 1.882911-4.634857 2.607107-1.593232 0.869036-3.186464 1.738071-4.779696 2.462268-1.593232 0.724196-3.331304 1.448393-4.924536 2.172589s-3.331304 1.303554-5.069375 1.882911c-1.738071 0.579357-3.331304 1.158714-5.069375 1.738071-1.738071 0.579357-3.476143 1.013875-5.214214 1.448393-1.738071 0.434518-3.476143 0.869036-5.214215 1.158714-1.738071 0.289679-3.476143 0.724196-5.359053 0.869036-1.738071 0.289679-3.620982 0.434518-5.359054 0.724196-1.738071 0.144839-3.620982 0.289679-5.359054 0.434518-1.738071 0.144839-3.620982 0.144839-5.359053 0.14484h-84.586144c-20.2775 0-36.64434 16.366839-36.644339 36.644339s16.366839 36.64434 36.644339 36.64434h84.586144c3.041625 0 6.08325-0.144839 8.980036-0.289679s5.938411-0.434518 8.980035-0.724196c3.041625-0.289679 5.938411-0.724196 8.980036-1.158715 2.896786-0.434518 5.938411-1.013875 8.835197-1.593232 2.896786-0.579357 5.938411-1.303554 8.835196-2.02775 2.896786-0.724196 5.793571-1.593232 8.690357-2.462268 2.896786-0.869036 5.793571-1.882911 8.545518-2.751946 2.896786-1.013875 5.648732-2.172589 8.400679-3.186464 2.751946-1.158714 5.503893-2.317429 8.255839-3.620983 2.751946-1.303554 5.359054-2.607107 8.111-4.0555 2.607107-1.448393 5.214214-2.896786 7.821322-4.490017 2.607107-1.593232 5.069375-3.186464 7.676482-4.779697 2.462268-1.593232 4.924536-3.476143 7.386804-5.214214 2.317429-1.738071 4.779696-3.620982 7.097125-5.503893 2.317429-1.882911 4.634857-3.910661 6.807446-5.938411 2.172589-2.02775 4.345179-4.0555 6.517768-6.228089s4.200339-4.345179 6.228089-6.517768 4.0555-4.490018 5.938411-6.807447c1.882911-2.317429 3.765821-4.779696 5.503893-7.097125 1.738071-2.317429 3.476143-4.924536 5.214214-7.386803 1.738071-2.462268 3.331304-5.069375 4.779697-7.676483 1.448393-2.607107 3.041625-5.214214 4.490018-7.821321 1.448393-2.607107 2.751946-5.359054 4.0555-7.966161 1.303554-2.751946 2.462268-5.503893 3.620982-8.255839 1.158714-2.751946 2.317429-5.648732 3.186464-8.400679 1.013875-2.751946 1.882911-5.648732 2.751947-8.545518 0.869036-2.896786 1.738071-5.793571 2.462268-8.690357s1.448393-5.938411 2.02775-8.835196c0.579357-2.896786 1.158714-5.938411 1.593232-8.835197 0.434518-2.896786 0.869036-5.938411 1.158714-8.980036 0.289679-3.041625 0.579357-6.08325 0.724197-8.980035 0.144839-3.041625 0.289679-6.08325 0.289678-8.980036 0-3.041625-0.144839-5.938411-0.289678-8.980036-0.144839-3.041625-0.434518-5.938411-0.724197-8.980036-0.289679-3.041625-0.724196-5.938411-1.158714-8.980036-0.434518-2.896786-1.013875-5.938411-1.593232-8.835196-0.579357-2.896786-1.303554-5.938411-2.02775-8.835197-0.724196-2.896786-1.593232-5.793571-2.462268-8.690357-0.869036-2.896786-1.882911-5.793571-2.751947-8.545518-1.013875-2.751946-2.02775-5.648732-3.186464-8.400678-1.158714-2.751946-2.317429-5.503893-3.620982-8.25584-1.303554-2.751946-2.607107-5.359054-4.0555-7.96616-1.448393-2.607107-2.896786-5.359054-4.490018-7.821322-1.593232-2.607107-3.186464-5.069375-4.779697-7.531643-1.593232-2.462268-3.476143-4.924536-5.214214-7.386803-1.738071-2.317429-3.620982-4.779696-5.503893-7.097126-1.882911-2.317429-3.910661-4.634857-5.938411-6.807446-2.02775-2.172589-4.0555-4.490018-6.228089-6.517768-2.02775-2.02775-4.345179-4.200339-6.517768-6.228089s-4.490018-3.910661-6.807446-5.938411c-2.317429-1.882911-4.779696-3.765821-7.097125-5.503893-2.317429-1.738071-4.924536-3.476143-7.386804-5.214214-2.462268-1.593232-5.069375-3.331304-7.676482-4.779697-2.607107-1.593232-5.214214-3.041625-7.821322-4.490018-2.607107-1.448393-5.359054-2.751946-7.96616-4.0555-2.751946-1.303554-5.503893-2.462268-8.25584-3.620982-2.751946-1.158714-5.648732-2.317429-8.400678-3.186464-2.751946-1.013875-5.648732-1.882911-8.545518-2.751947-2.896786-0.869036-5.793571-1.738071-8.690358-2.462267s-5.938411-1.448393-8.835196-2.02775c-2.896786-0.579357-5.938411-1.158714-8.835196-1.593233-2.896786-0.434518-5.938411-0.869036-8.980036-1.158714-3.041625-0.289679-6.08325-0.579357-8.980036-0.724196-3.186464 1.158714-6.228089 1.158714-9.124875 1.158714z m-255.641341 0h-86.613894c-3.041625 0-5.938411 0.144839-8.980036 0.289679-3.041625 0.144839-5.938411 0.434518-8.980035 0.724196-3.041625 0.289679-5.938411 0.724196-8.980036 1.158714-2.896786 0.434518-5.938411 1.013875-8.835197 1.593232-2.896786 0.579357-5.938411 1.303554-8.835196 2.02775-2.896786 0.724196-5.793571 1.593232-8.690357 2.462268-2.896786 0.869036-5.793571 1.882911-8.545518 2.896786-2.751946 1.013875-5.648732 2.02775-8.400679 3.186464s-5.503893 2.317429-8.255839 3.620983c-2.751946 1.303554-5.359054 2.607107-7.966161 4.0555-2.607107 1.448393-5.359054 2.896786-7.821322 4.490017-2.462268 1.448393-5.069375 3.186464-7.531642 4.779697l-7.386804 5.214214c-2.317429 1.738071-4.779696 3.620982-7.097125 5.503893-2.317429 1.882911-4.634857 3.910661-6.807447 5.938411-2.172589 2.02775-4.345179 4.0555-6.517768 6.228089s-4.200339 4.345179-6.228089 6.517768-4.0555 4.490018-5.938411 6.807447c-1.882911 2.317429-3.765821 4.634857-5.503893 7.097125l-5.214214 7.386803c-1.593232 2.462268-3.331304 5.069375-4.779696 7.531643-1.593232 2.607107-3.041625 5.214214-4.490018 7.821322-1.448393 2.607107-2.751946 5.359054-4.0555 7.96616-1.303554 2.751946-2.462268 5.503893-3.620982 8.25584-1.158714 2.751946-2.172589 5.503893-3.186465 8.400678-1.013875 2.751946-2.02775 5.648732-2.896785 8.545518-0.869036 2.896786-1.738071 5.793571-2.462268 8.690358s-1.448393 5.793571-2.02775 8.835196c-0.579357 2.896786-1.158714 5.938411-1.593232 8.835197-0.434518 2.896786-0.869036 5.938411-1.158715 8.980035-0.289679 2.896786-0.579357 5.938411-0.724196 8.980036-0.144839 2.896786-0.289679 5.938411-0.289679 8.980036 0 3.041625 0.144839 6.08325 0.289679 8.980036 0.144839 3.041625 0.434518 5.938411 0.724196 8.980036 0.289679 2.896786 0.724196 5.938411 1.158715 8.980035 0.434518 2.896786 1.013875 5.938411 1.593232 8.835197 0.579357 2.896786 1.303554 5.938411 2.02775 8.835196 0.724196 2.896786 1.593232 5.793571 2.462268 8.690357 0.869036 2.896786 1.882911 5.793571 2.751946 8.545518 1.013875 2.751946 2.02775 5.648732 3.186464 8.400679 1.158714 2.751946 2.317429 5.503893 3.620982 8.255839 1.303554 2.751946 2.607107 5.359054 4.055501 8.111 1.448393 2.607107 2.896786 5.214214 4.490017 7.821322 1.593232 2.607107 3.186464 5.069375 4.779697 7.676482 1.593232 2.462268 3.331304 4.924536 5.214214 7.386804 1.738071 2.462268 3.620982 4.779696 5.503893 7.097125 1.882911 2.317429 3.910661 4.634857 5.938411 6.807446 2.02775 2.172589 4.0555 4.345179 6.228089 6.517768s4.345179 4.200339 6.517768 6.22809 4.490018 3.910661 6.807447 5.93841c2.317429 1.882911 4.779696 3.765821 7.097125 5.503893 2.317429 1.738071 4.924536 3.476143 7.386803 5.214215 2.462268 1.593232 5.069375 3.331304 7.531643 4.779696 2.607107 1.593232 5.214214 3.041625 7.821322 4.490018 2.607107 1.448393 5.359054 2.751946 7.96616 4.0555 2.751946 1.303554 5.503893 2.462268 8.25584 3.620982 2.751946 1.158714 5.648732 2.172589 8.400678 3.186464 2.751946 1.013875 5.648732 2.02775 8.545518 2.751947 2.896786 0.869036 5.793571 1.738071 8.690358 2.462268s5.793571 1.448393 8.835196 2.02775c2.896786 0.579357 5.938411 1.158714 8.835197 1.593232 2.896786 0.434518 5.938411 0.869036 8.980035 1.158714 3.041625 0.289679 5.938411 0.579357 8.980036 0.724197 2.896786 0.144839 5.938411 0.289679 8.980036 0.289678h84.586143c20.2775 0 36.64434-16.366839 36.64434-36.644339s-16.366839-36.64434-36.64434-36.64434h-84.586143c-1.738071 0-3.620982 0-5.359054-0.144839-1.738071-0.144839-3.620982-0.289679-5.359053-0.434518-1.738071-0.144839-3.620982-0.434518-5.359054-0.724197-1.738071-0.289679-3.620982-0.579357-5.359054-0.869035-1.738071-0.289679-3.476143-0.724196-5.214214-1.158715-1.738071-0.434518-3.476143-0.869036-5.214214-1.448392-1.738071-0.579357-3.476143-1.158714-5.069375-1.738072-1.738071-0.579357-3.331304-1.303554-5.069375-1.882911-1.593232-0.724196-3.331304-1.448393-4.924536-2.172589s-3.186464-1.593232-4.779697-2.462268c-1.593232-0.869036-3.186464-1.738071-4.634857-2.607107-1.593232-0.869036-3.041625-1.882911-4.634857-2.896786-1.448393-1.013875-3.041625-2.02775-4.345178-3.041625-1.448393-1.013875-2.896786-2.172589-4.20034-3.331303-1.303554-1.158714-2.751946-2.317429-4.0555-3.476143-1.303554-1.158714-2.607107-2.462268-3.910661-3.765822-1.303554-1.303554-2.462268-2.607107-3.765821-3.91066-1.158714-1.303554-2.462268-2.751946-3.476143-4.0555-1.158714-1.448393-2.317429-2.751946-3.331304-4.20034-1.013875-1.448393-2.172589-2.896786-3.041625-4.345178-1.013875-1.448393-2.02775-3.041625-2.896785-4.634857-0.869036-1.593232-1.882911-3.041625-2.607107-4.634858-0.869036-1.593232-1.593232-3.186464-2.462268-4.779696-0.724196-1.593232-1.448393-3.331304-2.17259-4.924536s-1.303554-3.331304-1.88291-5.069375c-0.579357-1.738071-1.158714-3.476143-1.738072-5.069375-0.579357-1.738071-1.013875-3.476143-1.448393-5.214214-0.434518-1.738071-0.869036-3.476143-1.158714-5.214215-0.289679-1.738071-0.724196-3.476143-0.869036-5.359053-0.289679-1.738071-0.434518-3.620982-0.724196-5.359054-0.144839-1.738071-0.289679-3.620982-0.434518-5.359053-0.144839-1.738071-0.144839-3.620982-0.144839-5.359054 0-1.738071 0-3.620982 0.144839-5.359054 0.144839-1.738071 0.289679-3.620982 0.434518-5.359053 0.144839-1.738071 0.434518-3.620982 0.724196-5.359054 0.289679-1.738071 0.579357-3.620982 0.869036-5.359053 0.289679-1.738071 0.724196-3.476143 1.158714-5.214215 0.434518-1.738071 0.869036-3.476143 1.448393-5.214214 0.579357-1.738071 1.158714-3.476143 1.738072-5.069375 0.579357-1.738071 1.303554-3.331304 1.88291-5.069375 0.724196-1.593232 1.448393-3.331304 2.17259-4.924536s1.593232-3.186464 2.462268-4.779696c0.869036-1.593232 1.738071-3.186464 2.607107-4.634858 0.869036-1.593232 1.882911-3.041625 2.896785-4.490018s2.02775-3.041625 3.186465-4.490017 2.172589-2.896786 3.331303-4.20034c1.158714-1.448393 2.317429-2.751946 3.476143-4.0555 1.158714-1.303554 2.462268-2.607107 3.765822-3.91066 1.303554-1.303554 2.607107-2.462268 3.91066-3.765822 1.303554-1.158714 2.751946-2.317429 4.0555-3.476143 1.448393-1.158714 2.751946-2.317429 4.20034-3.331303 1.448393-1.013875 2.896786-2.172589 4.490018-3.186465 1.448393-1.013875 3.041625-2.02775 4.490018-2.896785 1.593232-0.869036 3.186464-1.882911 4.634857-2.607108 1.593232-0.869036 3.186464-1.593232 4.779696-2.462268 1.593232-0.724196 3.331304-1.448393 4.924536-2.172589s3.331304-1.303554 5.069375-1.882911l5.214214-1.738071c1.738071-0.579357 3.476143-1.013875 5.214215-1.448393 1.738071-0.434518 3.476143-0.869036 5.214214-1.158714 1.738071-0.289679 3.476143-0.724196 5.359054-0.869036 1.738071-0.289679 3.620982-0.434518 5.359053-0.724196 1.738071-0.144839 3.620982-0.289679 5.359054-0.434518 1.738071-0.144839 3.620982-0.144839 5.359053-0.144839h86.613894c20.2775 0 36.64434-16.366839 36.64434-36.64434s-16.511679-38.382411-36.789179-38.382411z m220.300555 146.577358H380.775606c-20.2775 0-36.64434 16.366839-36.644339 36.64434s16.366839 36.64434 36.644339 36.644339h268.676877c20.2775 0 36.64434-16.366839 36.64434-36.644339s-16.511679-36.64434-36.789179-36.64434z"  horiz-adv-x="1024" />
      
      <glyph glyph-name="backtotop" unicode="&#57621;" d="M522.658665 560.930114L247.665849 295.11749h156.063268l-1.365911-217.688087h239.923846v218.35516l160.161001 2.064749-279.789388 263.080802zM226.73247 669.313559h591.884157v-87.259473H226.73247V669.313559z"  horiz-adv-x="1026" />
      
      <glyph glyph-name="email" unicode="&#57873;" d="M884.071982 698.980646h-744.140615a74.414062 74.414062 0 0 1-74.414062-74.414061v-483.691401a74.414062 74.414062 0 0 1 74.414062-74.414061h744.140615a74.414062 74.414062 0 0 1 74.414062 74.414061v483.691401a74.414062 74.414062 0 0 1-74.414062 74.414061z m-23.988613-188.044334L552.041401 350.889029a83.490097 83.490097 0 0 0-76.522461-0.173632l-311.670894 160.13906a37.207031 37.207031 0 0 0 34.012187 66.188827l311.665933-160.13906a8.961934 8.961934 0 0 1 8.210352 0.019843l308.037008 160.039842a37.207031 37.207031 0 1 0 34.307363-66.030077z"  horiz-adv-x="1024" />
      
      <glyph glyph-name="weibo" unicode="&#57864;" d="M777.458938 449.078438c10.98225 0 20.331 8.258625 21.89025 19.033312 0.19575 0.801562 0.297 1.506938 0.297 2.411438 16.647188 152.145-122.645813 125.958375-122.645813 125.958375-12.366 0-22.263188-10.17225-22.263187-22.857188 0-12.48075 9.897187-22.649625 22.263187-22.649625 100.067063 22.4505 77.984437-79.245 77.984438-79.245-0.005063-12.583687 10.059188-22.651312 22.474125-22.651312zM761.235312 714.6285c-48.176437 11.464875-97.69275 1.584563-111.565687-1.117125-1.0665-0.10125-2.080687-1.130625-3.067875-1.32975-0.4725-0.10125-0.766125-0.605812-0.766125-0.605812-13.704187-3.933562-23.697563-16.805812-23.697563-32.016938 0-18.127125 14.443312-33.0345 32.499563-33.0345 0 0 17.5095 2.386125 29.406375 7.112813 11.79225 4.831313 111.51675 3.596062 161.082-80.976376 27.005063-61.720312 11.864812-103.028625 9.988312-109.665562 0 0-6.43275-16.038-6.43275-31.827938 0-18.23175 14.443312-29.676375 32.351063-29.676375 14.983313 0 27.54675 2.07225 31.233937 27.815063h0.19575c53.211937 180.208125-65.061562 264.886875-151.227 285.3225zM711.07775 392.886375c-32.175562 6.348375-16.518937 23.964188-16.518937 23.964188s31.482 52.769813-6.237 91.135125c-46.767375 47.514938-160.388438-6.046312-160.388438-6.046313-43.399125-13.689-31.88025 6.247125-25.746188 40.174312 0 39.971812-13.476375 107.630437-129.075187 67.665375C257.638062 569.60475 158.465375 428.838563 158.465375 428.838563 89.512438 335.303813 98.66375 263.009625 98.66375 263.009625c17.2125-159.593625 184.033688-203.402813 313.778813-213.775875 136.495125-10.882687 320.744813 47.83725 376.590937 168.463125 55.86975 120.823313-45.655313 168.642-77.95575 175.1895zM422.55575 94.237687c-135.536625-6.437812-245.070562 62.638312-245.070562 154.568251 0 92.031188 109.533937 165.828937 245.070562 172.177312 135.5805 6.348375 245.343938-50.441063 245.343938-142.281563 0.001687-91.919813-109.766813-178.205062-245.343938-184.463999zM395.495 360.364875c-136.270688-16.211813-120.539812-145.987313-120.539812-145.987313s-1.387125-41.094 36.552937-62.024062c79.739437-43.910438 161.846438-17.322187 203.347125 37.130063 41.499 54.486 17.163563 186.9885-119.36025 170.881312zM361.118938 178.22625c-25.4205-3.032437-45.948937 11.874937-45.948938 33.522188 0 21.549375 18.226688 44.109563 43.675875 46.81125 29.23425 2.82825 48.277687-14.28975 48.277687-35.940375-0.003375-21.544313-20.626313-41.470312-46.004624-44.393063z m80.357062 69.570563c-8.634937-6.5475-19.220625-5.641312-23.770125 2.215687-4.750312 7.652812-2.966625 19.934438 5.740875 26.38575 10.0845 7.639312 20.599312 5.437125 25.152188-2.2275 4.573125-7.8435 1.311187-19.62225-7.122938-26.373937z"  horiz-adv-x="1024" />
      
      <glyph glyph-name="discord" unicode="&#57865;" d="M804.412109 652.576172a697.517578 697.517578 0 0 1-171.755859 53.314453 2.636719 2.636719 0 0 1-2.742188-1.318359c-7.435547-13.183594-15.662109-30.427734-21.410156-43.927735a642.832031 642.832031 0 0 1-192.902344 0 435.480469 435.480469 0 0 1-21.726562 43.927735 2.689453 2.689453 0 0 1-2.742188 1.318359c-59.326172-10.230469-117.070313-28.160156-171.755859-53.314453a2.109375 2.109375 0 0 1-1.107422-0.949219C108.898438 488.203125 78.892578 328.787109 93.605469 171.375c0.052734-0.738281 0.527344-1.476563 1.107422-1.951172a700.207031 700.207031 0 0 1 210.673828-106.523437 2.636719 2.636719 0 0 1 2.953125 1.001953c16.242188 22.148438 30.691406 45.509766 43.136719 70.083984a2.636719 2.636719 0 0 1-0.527344 3.111328 2.636719 2.636719 0 0 1-0.949219 0.580078 468.597656 468.597656 0 0 0-65.8125 31.376954 2.742188 2.742188 0 0 0-1.318359 2.162109 2.689453 2.689453 0 0 0 1.054687 2.320312c4.429688 3.322266 8.859375 6.802734 13.078125 10.283204a2.636719 2.636719 0 0 0 2.689453 0.36914c138.111328-63.070313 287.613281-63.070313 424.03711 0a2.636719 2.636719 0 0 0 2.794922-0.36914c4.21875-3.480469 8.648438-6.960938 13.078125-10.283204a2.636719 2.636719 0 0 0 1.054687-2.267578 2.636719 2.636719 0 0 0-1.265625-2.214843 436.271484 436.271484 0 0 0-65.865234-31.324219 2.636719 2.636719 0 0 1-1.423828-3.744141c12.65625-24.521484 27.158203-47.935547 43.083984-70.083984a2.636719 2.636719 0 0 1 2.953125-1.001953 697.939453 697.939453 0 0 1 210.990234 106.523437 2.636719 2.636719 0 0 1 1.107422 1.951172c17.613281 181.986328-29.478516 340.083984-124.769531 480.199219a1.792969 1.792969 0 0 1-1.054688 1.001953z m-432.316406-385.330078c-41.607422 0-75.832031 38.179688-75.832031 85.007812 0 46.880859 33.591797 85.060547 75.832031 85.060547 42.556641 0 76.464844-38.496094 75.832031-85.060547 0-46.828125-33.591797-85.007813-75.832031-85.007812z m280.335938 0c-41.554688 0-75.832031 38.179688-75.832032 85.007812 0 46.880859 33.591797 85.060547 75.832032 85.060547 42.556641 0 76.517578-38.496094 75.832031-85.060547 0-46.828125-33.275391-85.007813-75.832031-85.007812z"  horiz-adv-x="1024" />
      
      <glyph glyph-name="image" unicode="&#57618;" d="M206.479629 574.950232c0 42.128395 34.251698 76.380093 76.380093 76.380092h458.280556c42.128395 0 76.380093-34.251698 76.380093-76.380092v-381.900464c0-42.128395-34.251698-76.380093-76.380093-76.380092H282.859722c-42.128395 0-76.380093 34.251698-76.380093 76.380092V574.950232z m386.435532-127.101248c-5.370475 7.876697-14.201923 12.531109-23.630092 12.531109s-18.37896-4.654412-23.630091-12.531109l-103.829188-152.28281-31.626132 39.502829c-5.489819 6.802602-13.724548 10.740951-22.317309 10.740951s-16.946833-3.938349-22.317308-10.740951l-76.380093-95.475116c-6.921946-8.59276-8.234729-20.407806-3.460972-30.313349S300.522618 193.049768 311.502257 193.049768h400.995486c10.621607 0 20.407806 5.847851 25.300906 15.276019s4.29638 20.765838-1.670815 29.477942l-143.212673 210.045255zM340.144792 460.380093a57.285069 57.285069 0 1 1 0 114.570139 57.285069 57.285069 0 1 1 0-114.570139z"  horiz-adv-x="1024" />
      
      <glyph glyph-name="time" unicode="&#57605;" d="M512 688.162502C344.276106 688.162502 207.837498 551.723894 207.837498 384s136.438608-304.162502 304.162502-304.162502 304.162502 136.438608 304.162502 304.162502S679.723894 688.162502 512 688.162502zM620.12977 340.548214l-129.747034 0C478.390043 340.548214 468.548214 350.368318 468.548214 362.382736L468.548214 535.342571c0 11.992693 9.7332 21.725893 21.725893 21.725893s21.725893-9.7332 21.725893-21.725893L512 384l108.12977 0c12.014419 0 21.725893-9.7332 21.725893-21.725893C641.855663 350.259688 632.122463 340.548214 620.12977 340.548214z"  horiz-adv-x="1024" />
      
      <glyph glyph-name="info" unicode="&#57608;" d="M512.001853 707.505785c-178.658288 0-323.507267-144.871952-323.507268-323.507267 0-178.669405 144.848979-323.503562 323.507268-323.503562 178.650137 0 323.502821 144.834157 323.50282 323.503562C835.504674 562.633833 690.651989 707.505785 512.001853 707.505785L512.001853 707.505785zM519.920236 593.190566c29.062726 0 52.574804-23.561729 52.574803-52.559982 0-29.06569-23.512818-52.596295-52.574803-52.596294-28.997512 0-52.576286 23.530604-52.576286 52.596294C467.340245 569.628837 490.922724 593.190566 519.920236 593.190566L519.920236 593.190566zM613.386059 196.230939L437.331166 196.230939l0 23.068173 22.046231 8.145152c12.341117 4.534636 20.55593 16.33551 20.55593 29.447344L479.933327 381.252836c0 13.134808-8.211849 24.912708-20.55593 29.427336l-22.046231 8.163678 0 23.564693 133.433464 0 0-185.519158c0-13.10887 8.213331-24.912708 20.578903-29.44438l22.043267-8.148116L613.3868 196.230939 613.386059 196.230939zM613.386059 196.230939"  horiz-adv-x="1024" />
      
      <glyph glyph-name="date" unicode="&#57604;" d="M790.091431 445.798095v-293.540954a61.798095 61.798095 0 0 0-61.798096-61.798095H295.706665a61.798095 61.798095 0 0 0-61.798096 61.798095V445.798095h556.182862zM380.679047 237.229522h-30.899048l-2.224732-0.108146A23.174286 23.174286 0 0 1 349.779999 190.880951h30.899048l2.224731 0.108147A23.174286 23.174286 0 0 1 380.679047 237.229522z m146.770477 0h-30.899048l-2.224731-0.108146A23.174286 23.174286 0 0 1 496.550476 190.880951h30.899048l2.224731 0.108147A23.174286 23.174286 0 0 1 527.449524 237.229522z m146.770477 0h-30.899048l-2.224731-0.108146A23.174286 23.174286 0 0 1 643.320953 190.880951h30.899048l2.224732 0.108147A23.174286 23.174286 0 0 1 674.220001 237.229522z m-293.540954 123.596192h-30.899048l-2.224732-0.108146A23.174286 23.174286 0 0 1 349.779999 314.477142h30.899048l2.224731 0.108147A23.174286 23.174286 0 0 1 380.679047 360.825714z m146.770477 0h-30.899048l-2.224731-0.108146A23.174286 23.174286 0 0 1 496.550476 314.477142h30.899048l2.224731 0.108147A23.174286 23.174286 0 0 1 527.449524 360.825714z m146.770477 0h-30.899048l-2.224731-0.108146A23.174286 23.174286 0 0 1 643.320953 314.477142h30.899048l2.224732 0.108147A23.174286 23.174286 0 0 1 674.220001 360.825714zM635.596192 700.71524a23.174286 23.174286 0 0 0 23.066138-20.949554L658.770478 677.540954v-61.798095H728.293335a61.798095 61.798095 0 0 0 61.798096-61.798096v-61.798096H233.908569v61.798096a61.798095 61.798095 0 0 0 61.798096 61.798096h69.522857V677.540954a23.174286 23.174286 0 0 0 46.240426 2.224732L411.578094 677.540954v-61.798095h200.843812V677.540954A23.174286 23.174286 0 0 0 635.596192 700.71524z"  horiz-adv-x="1024" />
      
      <glyph glyph-name="search" unicode="&#57603;" d="M815.988695 140.539643l-135.656476 135.656476a259.407163 259.407163 0 0 1 48.579097 151.212215c0 143.955767-116.754949 260.710716-260.710716 260.710717S207.837498 571.407553 207.837498 427.451786s116.407335-260.710716 260.363102-260.710716a259.320259 259.320259 0 0 1 151.212215 48.579097l135.656476-135.656476 60.919404 60.875952zM468.2006 253.644642a173.807144 173.807144 0 1 0 0 347.614288 173.807144 173.807144 0 0 0 0-347.614288z"  horiz-adv-x="1024" />
      
      <glyph glyph-name="facebook" unicode="&#57862;" d="M745.317906 827.685102l0-142.583392-84.789105 0c-30.971385 0-51.861158-6.475482-62.668295-19.426445-10.807137-12.950963-16.210193-32.387641-16.210193-58.31208l0-102.071723 158.241001 0-21.050432-159.867034L581.650313 345.424426l0-409.91395L416.391479-64.489524 416.391479 345.423403 278.68107 345.423403 278.68107 505.290437l137.709385 0 0 117.731378c0 66.964134 18.723434 118.90511 56.170301 155.820881 37.445844 36.916794 87.312578 55.375192 149.600203 55.375192 52.931536 0 93.983511-2.155083 123.156948-6.464225L745.317906 827.685102 745.317906 827.685102z"  horiz-adv-x="1024" />
      
      <glyph glyph-name="comments" unicode="&#57606;" d="M759.192383 648.848982a52.969796 52.969796 0 0 0 52.969796-52.969796v-353.131976a52.969796 52.969796 0 0 0-52.969796-52.969796H484.137887l-121.37146-79.542978A17.656598 17.656598 0 0 0 335.434012 125.013009V189.777414H264.807617a52.969796 52.969796 0 0 0-52.969796 52.969796V595.879186a52.969796 52.969796 0 0 0 52.969796 52.969796h494.384766zM534.600446 419.313198H388.403808v-52.969796h146.196638v52.969796zM635.596192 525.25279H388.403808v-52.969796h247.192384v52.969796z"  horiz-adv-x="1024" />
      
      <glyph glyph-name="tags" unicode="&#57617;" d="M806.716602 621.394336l63.28125-0.179297-0.780469-271.328906-308.475-308.475-44.750391 44.745117 290.017969 290.017969 0.706641 245.220117zM712.390625 689.769727a31.640625 31.640625 0 0 0 31.535156-30.549024l0.015821-1.186523-0.748829-258.271875-299.246484-299.246485a31.640625 31.640625 0 0 0-43.780078-0.928125l-0.965039 0.928125L154.687695 345.029297l-0.928125 0.965039a31.640625 31.640625 0 0 0-0.026367 42.788672l0.949219 0.991406 299.246484 299.246484L712.390625 689.769727z m-163.476562-147.550782a42.1875 42.1875 0 1 1 0-84.375 42.1875 42.1875 0 0 1 0 84.375z"  horiz-adv-x="1024" />
      
      <glyph glyph-name="folder" unicode="&#57601;" d="M170.6672 111.066667V656.931733h204.8l34.133333-68.2352H648.533333v-68.2352H307.200533l-68.266666-136.470933h68.266666l34.133334 68.2352H853.333333l-136.533333-341.158933H170.6672z"  horiz-adv-x="1024" />
      
      <glyph glyph-name="content" unicode="&#57602;" d="M238.9328 145.232v68.234667H648.533333v-68.234667H238.9328z m0 136.442667v68.218666h136.533333v-68.218666h-136.533333z m0 136.432533V486.3328H580.266667v-68.2256H238.9328z m0 136.4512V622.7696H785.066667v-68.2112H238.9328z m204.8-272.883733v68.218666H785.066667v-68.218666H443.7328zM648.533333 418.1072V486.3328h136.533334v-68.2256h-136.533334z"  horiz-adv-x="1024" />
      
      <glyph glyph-name="bilibili" unicode="&#57857;" d="M729.9875 659.5125h32.025c56.625-2.025 103.8375-21.675 141.4875-59.025 37.65-37.3125 57.15-84.3375 58.5-141v-276c-1.35-56.625-20.85-103.8375-58.5-141.4875s-84.825-57.15-141.4875-58.5H261.9875c-56.625 1.35-103.8375 20.85-141.4875 58.5S63.35 126.825 62 183.4875v276c1.35 56.6625 20.85 103.6875 58.5 141 37.65 37.35 84.825 57 141.4875 59.025h29.025l-44.025 42a46.275 46.275 0 0 0-13.9875 33.975c0 13.35 4.65 24.675 13.9875 34.0125l1.0125 1.0125c10.0125 9.3375 21.4875 13.9875 34.5 13.9875 13.0125 0 24.4875-4.65 34.5-13.9875L423.9875 667.5c2.6625-2.6625 5.025-5.325 7.0125-7.9875h160.0125a31.35 31.35 0 0 0 6 7.9875l106.9875 103.0125c10.0125 9.3375 21.4875 13.9875 34.5 13.9875 13.0125 0 24.825-5.6625 34.8375-15 10.0125-9.3375 14.6625-20.6625 14.6625-34.0125 0-13.3125-4.65-24.6375-13.9875-33.975zM261.9875 562.5c-27.975-0.675-51.4875-10.35-70.5-28.9875-18.975-18.675-28.8375-42.375-29.475-71.025v-282c0.6375-28.65 10.5-52.3125 29.475-70.9875 19.0125-18.675 42.525-28.35 70.5-28.9875h500.025c27.975 0.6375 51.4875 10.3125 70.5 28.9875 18.975 18.675 28.8375 42.3375 29.475 70.9875v282c-0.6375 28.6875-10.5 52.35-29.475 71.025-19.0125 18.6375-42.525 28.3125-70.5 28.9875zM362 417.4875c13.9875 0 25.65-4.65 34.9875-13.9875 9.375-9.3375 14.3625-21.3375 15-36v-43.9875c-0.6375-14.6625-5.625-26.6625-15-36-9.3375-9.375-21-14.025-34.9875-14.025s-25.65 4.6875-34.9875 14.025c-9.375 9.3375-14.3625 21.3375-15 36V367.5c0 13.9875 4.8375 25.8375 14.475 35.5125 9.675 9.6375 21.525 14.475 35.5125 14.475z m300 0c13.9875 0 25.65-4.65 34.9875-13.9875 9.375-9.3375 14.3625-21.3375 15-36v-43.9875c-0.6375-14.6625-5.625-26.6625-15-36-9.3375-9.375-21-14.025-34.9875-14.025s-25.65 4.6875-34.9875 14.025c-9.375 9.3375-14.3625 21.3375-15 36V367.5c0.6375 14.6625 5.625 26.6625 15 36 9.3375 9.3375 21 13.9875 34.9875 13.9875z"  horiz-adv-x="1024" />
      
      <glyph glyph-name="rss" unicode="&#57609;" d="M215.369141 186.246094a98.876953 98.876953 0 1 1 0-197.753907 98.876953 98.876953 0 0 1 0 197.753907zM116.492188 495.236572v-135.95581c204.78653 0 370.788574-166.014404 370.788574-370.788574h135.95581c0 279.883575-226.873169 506.744385-506.744385 506.744384zM116.492188 779.507812v-135.95581c361.778412 0 655.059814-293.281403 655.059814-655.059814h135.955811C907.507812 425.355286 553.355286 779.507812 116.492188 779.507812z"  horiz-adv-x="1024" />
      
      <glyph glyph-name="instagram" unicode="&#57861;" d="M-11.078055 905.169011L-11.078055 905.169011-11.078055 905.169011-11.078055 905.169011zM767.839702 392.723463c0-147.16835-119.335513-266.471117-266.471117-266.471116-147.16835 0-266.472209 119.302767-266.472209 266.471116 0 17.520094 1.730069 34.653787 5.028664 51.244991L60.664715 443.968455l0-354.196019c0-76.033561 61.589389-137.75175 137.751751-137.75175l605.903148 0c76.033561 0 137.75175 61.653789 137.75175 137.75175L942.071363 443.967363l-179.195924 0C766.110724 427.37725 767.839702 410.242466 767.839702 392.723463L767.839702 392.723463 767.839702 392.723463zM804.319612 833.427333L198.416466 833.427333c-76.099053 0-137.75175-61.685443-137.751751-137.752841L60.664715 546.457346l223.105856 0c48.23347 68.154922 127.694423 112.738326 217.598013 112.738327 89.901406 0 169.363452-44.583405 217.596922-112.738327l223.106948 0L942.072454 695.674492C942.071363 771.709143 880.384827 833.427333 804.319612 833.427333L804.319612 833.427333zM871.705009 663.294355c0-13.579682-11.080086-24.597552-24.596461-24.597552L773.380291 638.696802c-13.516374 0-24.597552 11.08227-24.597552 24.597552l0 73.792657c0 13.579682 11.113924 24.597552 24.597552 24.597552l73.728256 0c13.579682 0 24.596461-11.08227 24.596461-24.597552L871.705009 663.294355 871.705009 663.294355 871.705009 663.294355zM665.349719 392.723463c0 90.606532-73.439002 163.983317-163.982226 163.983318-90.542132 0-163.983317-73.376785-163.983317-163.983318s73.440094-163.982226 163.983317-163.982226C591.910718 228.741237 665.349719 302.11584 665.349719 392.723463L665.349719 392.723463 665.349719 392.723463z"  horiz-adv-x="1024" />
      
      <glyph glyph-name="user" unicode="&#57607;" d="M511.663417 508.962422m-180.557948 0a180.557948 180.557948 0 1 1 361.115897 0 180.557948 180.557948 0 1 1-361.115897 0ZM686.100758 329.424575c-14.28142 11.221115-34.683448 10.201014-47.944766-3.060304-32.643245-32.643245-77.527707-53.045273-127.512676-53.045273s-94.869431 20.402028-127.512675 53.045273c-13.261318 13.261318-33.663346 15.301521-47.944766 3.060304C280.100399 282.49991 239.296343 222.313927 226.035025 139.685714c-5.100507-33.663346 18.361825-61.206085 53.045272-61.206085H745.266639c33.663346 0 58.14578 27.542738 53.045273 61.206085-14.28142 82.628214-55.085476 142.814196-112.211154 189.738861z"  horiz-adv-x="1024" />
      
      <glyph glyph-name="youtube" unicode="&#57863;" d="M956.036881 572.4375c0 79.101563-58.183594 142.734375-130.078125 142.734375C728.575944 719.742188 629.259537 721.5 527.833756 721.5c-5.273438 0-10.546875 0-15.820312 0s-10.546875 0-15.820313 0c-101.25 0-200.742188-1.757813-298.125-6.328125-71.71875 0-129.902344-63.984375-129.902344-143.085938C63.771256 509.507813 61.837663 446.929688 62.013444 384.351563 61.837663 321.773438 63.771256 259.195313 67.990006 196.441406c0-79.101563 58.183594-143.261719 129.902344-143.261719 102.304688-4.746094 207.246094-6.855469 313.945313-6.679687 106.875-0.351563 211.464844 1.757813 313.945312 6.679687 71.894531 0 130.078125 64.160156 130.078125 143.261719 4.21875 62.753906 6.152344 125.332031 5.976563 188.085938C962.189225 447.105469 960.255631 509.683594 956.036881 572.4375zM425.880631 211.910156L425.880631 557.320313l254.882813-172.617188L425.880631 211.910156z"  horiz-adv-x="1026" />
      
      <glyph glyph-name="douyin" unicode="&#57858;" d="M886.578693 452.469962a343.932612 343.932612 0 0 0-199.756729 63.381669v-287.098062a265.645805 265.645805 0 1 0-265.506504 264.670702 271.078519 271.078519 0 0 0 42.765213-3.482509v-151.419502a115.340706 115.340706 0 0 1-41.790111 7.52222 118.405315 118.405315 0 1 1 118.405315-118.266014V797.656278h148.354893A198.503027 198.503027 0 0 1 888.110998 599.292552v-146.82259z"  horiz-adv-x="1024" />
      
      <glyph glyph-name="telegram" unicode="&#57859;" d="M860.4 717.82s77.7 30.3 71.2-43.28c-2.14-30.3-21.56-136.36-36.68-251.06l-51.8-339.8s-4.32-49.78-43.18-58.44c-38.84-8.64-97.12 30.3-107.92 38.96-8.64 6.5-161.88 103.9-215.84 151.5-15.12 13-32.4 38.96 2.16 69.26L704.96 501.4c25.9 25.96 51.8 86.56-56.12 12.98l-302.2-205.6s-34.54-21.66-99.28-2.18l-140.32 43.3s-51.8 32.46 36.7 64.92c215.86 101.72 481.36 205.6 716.62 303z"  horiz-adv-x="1024" />
      
      <glyph glyph-name="github" unicode="&#57860;" d="M834.08 660.69c33.39 62.01-4.77 143.13-4.77 143.13-85.86 0-147.9-57.24-147.9-57.24-33.39 19.08-143.13 19.08-143.13 19.08s-109.74 0-143.13-19.08c0 0-62.01 57.24-147.9 57.24 0 0-38.16-81.09-4.77-143.13 0 0-76.32-71.55-47.7-224.22 26.91-143.46 152.67-181.29 233.76-181.29 0 0-33.39-28.62-28.62-76.32 0 0-47.7-28.62-95.4-9.54s-71.55 66.78-71.55 66.78-47.7 62.01-95.4 38.16c0 0-14.31-14.31 38.16-38.16 0 0 38.16-57.24 52.47-90.63s90.63-62.01 166.98-42.93v-109.71s0-9.54-19.08-14.31-19.08-14.31-9.54-14.31h343.5c9.54 0 9.54 9.54-9.54 14.31s-19.08 14.31-19.08 14.31V102.54s0.42 57.21 0 76.32c-1.05 47.94-33.39 76.32-33.39 76.32 81.09 0 206.85 37.83 233.76 181.29 28.62 152.67-47.7 224.22-47.7 224.22z"  horiz-adv-x="1024" />
      
      <glyph glyph-name="quote" unicode="&#57619;" d="M324.417898 347.768395c2.337164 67.787492 13.620721 119.391997 33.893052 154.85798 20.250792 35.444445 51.80668 62.123134 94.667661 80.057605L401.554048 664.495847c-70.909733-31.959541-122.717107-79.091198-155.440882-141.416505C221.165813 476.329802 208.713674 400.745046 208.713674 296.344527l0-192.83968 225.565538 0L434.279212 347.768395 324.417898 347.768395zM686.724919 347.768395c2.337164 67.787492 13.620721 119.391997 33.893051 154.85798 20.250792 35.444445 51.80668 62.123134 94.667662 80.057605L763.861068 664.495847c-70.909733-31.959541-122.717107-79.091198-155.440881-141.416505-24.947353-46.74954-37.399493-122.334296-37.399493-226.734815l0-192.83968 225.565538 0L796.586232 347.768395 686.724919 347.768395z"  horiz-adv-x="1024" />
      
      <glyph glyph-name="loading" unicode="&#57616;" d="M731.136047 231.675419a3.823757 3.823757 0 1 1 7.647515 0 3.823757 3.823757 0 0 1-7.647515 0z m-84.296465-86.973095a7.577991 7.577991 0 1 1 15.190745 0 7.577991 7.577991 0 0 1-15.190745 0z m-113.600349-44.737959a11.401749 11.401749 0 1 1 22.838259 0 11.401749 11.401749 0 0 1-22.838259 0zM410.948526 105.908569a15.190744 15.190744 0 1 1 30.381489 0 15.190744 15.190744 0 0 1-30.381489 0z m-108.455658 55.687809a19.014502 19.014502 0 1 1 37.994242 0 19.014502 19.014502 0 0 1-38.029003 0zM227.303898 256.251749a22.838259 22.838259 0 1 1 45.641756 0 22.838259 22.838259 0 0 1-45.641756 0zM199.147141 372.459206a26.592493 26.592493 0 1 1 53.184986 0 26.592493 26.592493 0 0 1-53.184987 0z m23.185873 115.477466a30.41625 30.41625 0 1 1 60.8325 0 30.41625 30.41625 0 0 1-60.8325 0zM291.960155 581.027779a34.240007 34.240007 0 1 1 68.480015 0 34.240007 34.240007 0 0 1-68.480015 0zM394.158756 634.282288a37.994242 37.994242 0 1 1 75.988484 0 37.994242 37.994242 0 0 1-76.023245 0z m114.747477 3.337097a41.817999 41.817999 0 1 1 83.670759 0 41.817999 41.817999 0 0 1-83.670759 0z m105.083799-47.275543a45.606995 45.606995 0 1 1 91.213989 0 45.606995 45.606995 0 0 1-91.213989 0z m74.702311-88.815451a49.430752 49.430752 0 1 1 98.826742 0 49.430752 49.430752 0 0 1-98.826742 0z m29.68626-115.06033a53.219748 53.219748 0 1 1 106.474257 0 53.219748 53.219748 0 0 1-106.474257 0z"  horiz-adv-x="1024" />
      
    </font>
</defs>
</svg>
